REM DIRINDEX 1\2,1\3,1\4,1\5,1\6
REM DIRNAME folder01,folder02,folder03,folder04,folder05,folder06
TITLE ""
FILE "Disc2Track53.mp3" MP3
  TRACK 01 AUDIO
    TITLE "3:cjc030_03648"
    INDEX 01 00:00:00
  TRACK 02 AUDIO
    TITLE "0:"
    INDEX 01 00:01:13
  TRACK 03 AUDIO
    TITLE "4:cjc030_03649"
    INDEX 01 00:01:24
  TRACK 04 AUDIO
    TITLE "0:"
    INDEX 01 00:02:06
  TRACK 05 AUDIO
    TITLE "5:cjc030_03650"
    INDEX 01 00:02:16
  TRACK 06 AUDIO
    TITLE "0:"
    INDEX 01 00:03:33
  TRACK 07 AUDIO
    TITLE "6:cjc030_03651"
    INDEX 01 00:03:43
  TRACK 08 AUDIO
    TITLE "0:"
    INDEX 01 00:05:48
  TRACK 09 AUDIO
    TITLE "3:cjc030_03652"
    INDEX 01 00:06:20
  TRACK 10 AUDIO
    TITLE "0:"
    INDEX 01 00:07:39
  TRACK 11 AUDIO
    TITLE "4:cjc030_03653"
    INDEX 01 00:07:47
  TRACK 12 AUDIO
    TITLE "0:"
    INDEX 01 00:08:48
  TRACK 13 AUDIO
    TITLE "5:cjc030_03654"
    INDEX 01 00:08:56
  TRACK 14 AUDIO
    TITLE "0:"
    INDEX 01 00:10:00
  TRACK 15 AUDIO
    TITLE "3:cjc030_03655"
    INDEX 01 00:10:59
  TRACK 16 AUDIO
    TITLE "0:"
    INDEX 01 00:12:01
  TRACK 17 AUDIO
    TITLE "4:cjc030_03656"
    INDEX 01 00:12:09
  TRACK 18 AUDIO
    TITLE "0:"
    INDEX 01 00:13:67
  TRACK 19 AUDIO
    TITLE "5:cjc030_03657"
    INDEX 01 00:14:00
  TRACK 20 AUDIO
    TITLE "0:"
    INDEX 01 00:15:17
  TRACK 21 AUDIO
    TITLE "3:cjc030_03658"
    INDEX 01 00:16:00
  TRACK 22 AUDIO
    TITLE "0:"
    INDEX 01 00:17:21
  TRACK 23 AUDIO
    TITLE "4:cjc030_03659"
    INDEX 01 00:17:29
  TRACK 24 AUDIO
    TITLE "0:"
    INDEX 01 00:18:39
  TRACK 25 AUDIO
    TITLE "5:cjc030_03660"
    INDEX 01 00:18:48
  TRACK 26 AUDIO
    TITLE "0:"
    INDEX 01 00:19:67
  TRACK 27 AUDIO
    TITLE "6:cjc030_03661"
    INDEX 01 00:20:04
  TRACK 28 AUDIO
    TITLE "0:"
    INDEX 01 00:22:09
  TRACK 29 AUDIO
    TITLE "3:cjc030_03662"
    INDEX 01 00:22:58
  TRACK 30 AUDIO
    TITLE "0:"
    INDEX 01 00:24:08
  TRACK 31 AUDIO
    TITLE "4:cjc030_03663"
    INDEX 01 00:24:16
  TRACK 32 AUDIO
    TITLE "0:"
    INDEX 01 00:25:07
  TRACK 33 AUDIO
    TITLE "5:cjc030_03664"
    INDEX 01 00:25:17
  TRACK 34 AUDIO
    TITLE "0:"
    INDEX 01 00:26:40
  TRACK 35 AUDIO
    TITLE "6:cjc030_03665"
    INDEX 01 00:26:54
  TRACK 36 AUDIO
    TITLE "0:"
    INDEX 01 00:28:45
  TRACK 37 AUDIO
    TITLE "3:cjc030_03666"
    INDEX 01 00:29:19
  TRACK 38 AUDIO
    TITLE "0:"
    INDEX 01 00:30:54
  TRACK 39 AUDIO
    TITLE "4:cjc030_03667"
    INDEX 01 00:30:63
  TRACK 40 AUDIO
    TITLE "0:"
    INDEX 01 00:31:53
  TRACK 41 AUDIO
    TITLE "5:cjc030_03668"
    INDEX 01 00:31:61
  TRACK 42 AUDIO
    TITLE "0:"
    INDEX 01 00:33:22
  TRACK 43 AUDIO
    TITLE "6:cjc030_03669"
    INDEX 01 00:33:34
  TRACK 44 AUDIO
    TITLE "0:"
    INDEX 01 00:37:69
  TRACK 45 AUDIO
    TITLE "3:cjc030_03670"
    INDEX 01 00:38:43
  TRACK 46 AUDIO
    TITLE "0:"
    INDEX 01 00:39:56
  TRACK 47 AUDIO
    TITLE "4:cjc030_03671"
    INDEX 01 00:39:66
  TRACK 48 AUDIO
    TITLE "0:"
    INDEX 01 00:40:66
  TRACK 49 AUDIO
    TITLE "5:cjc030_03672"
    INDEX 01 00:41:00
  TRACK 50 AUDIO
    TITLE "0:"
    INDEX 01 00:42:14
  TRACK 51 AUDIO
    TITLE "6:cjc030_03673"
    INDEX 01 00:42:27
  TRACK 52 AUDIO
    TITLE "0:"
    INDEX 01 00:44:16
  TRACK 53 AUDIO
    TITLE "3:cjc030_03674"
    INDEX 01 00:44:63
  TRACK 54 AUDIO
    TITLE "0:"
    INDEX 01 00:46:13
  TRACK 55 AUDIO
    TITLE "4:cjc030_03675"
    INDEX 01 00:46:21
  TRACK 56 AUDIO
    TITLE "0:"
    INDEX 01 00:47:19
  TRACK 57 AUDIO
    TITLE "5:cjc030_03676"
    INDEX 01 00:47:28
  TRACK 58 AUDIO
    TITLE "0:"
    INDEX 01 00:48:51
  TRACK 59 AUDIO
    TITLE "3:cjc030_03677"
    INDEX 01 00:49:33
  TRACK 60 AUDIO
    TITLE "0:"
    INDEX 01 00:50:62
  TRACK 61 AUDIO
    TITLE "4:cjc030_03678"
    INDEX 01 00:50:70
  TRACK 62 AUDIO
    TITLE "0:"
    INDEX 01 00:52:08
  TRACK 63 AUDIO
    TITLE "5:cjc030_03679"
    INDEX 01 00:52:16
  TRACK 64 AUDIO
    TITLE "0:"
    INDEX 01 00:53:45
  TRACK 65 AUDIO
    TITLE "3:cjc030_03680"
    INDEX 01 00:54:29
  TRACK 66 AUDIO
    TITLE "0:"
    INDEX 01 00:55:57
  TRACK 67 AUDIO
    TITLE "4:cjc030_03681"
    INDEX 01 00:55:67
  TRACK 68 AUDIO
    TITLE "0:"
    INDEX 01 00:57:27
  TRACK 69 AUDIO
    TITLE "5:cjc030_03682"
    INDEX 01 00:57:35
  TRACK 70 AUDIO
    TITLE "0:"
    INDEX 01 00:58:66
  TRACK 71 AUDIO
    TITLE "3:cjc030_03683"
    INDEX 01 00:59:41
  TRACK 72 AUDIO
    TITLE "0:"
    INDEX 01 01:01:03
  TRACK 73 AUDIO
    TITLE "4:cjc030_03684"
    INDEX 01 01:01:09
  TRACK 74 AUDIO
    TITLE "0:"
    INDEX 01 01:02:18
  TRACK 75 AUDIO
    TITLE "5:cjc030_03685"
    INDEX 01 01:02:26
  TRACK 76 AUDIO
    TITLE "0:"
    INDEX 01 01:03:61
  TRACK 77 AUDIO
    TITLE "3:cjc030_03686"
    INDEX 01 01:04:43
  TRACK 78 AUDIO
    TITLE "0:"
    INDEX 01 01:06:06
  TRACK 79 AUDIO
    TITLE "4:cjc030_03687"
    INDEX 01 01:06:16
  TRACK 80 AUDIO
    TITLE "0:"
    INDEX 01 01:07:43
  TRACK 81 AUDIO
    TITLE "5:cjc030_03688"
    INDEX 01 01:07:49
  TRACK 82 AUDIO
    TITLE "0:"
    INDEX 01 01:09:16
  TRACK 83 AUDIO
    TITLE "3:cjc030_03689"
    INDEX 01 01:09:71
  TRACK 84 AUDIO
    TITLE "0:"
    INDEX 01 01:11:17
  TRACK 85 AUDIO
    TITLE "4:cjc030_03690"
    INDEX 01 01:11:27
  TRACK 86 AUDIO
    TITLE "0:"
    INDEX 01 01:12:23
  TRACK 87 AUDIO
    TITLE "5:cjc030_03691"
    INDEX 01 01:12:30
  TRACK 88 AUDIO
    TITLE "0:"
    INDEX 01 01:13:55
